<svg width="157" height="39" viewBox="0 0 157 39" fill="none" xmlns="http://www.w3.org/2000/svg">
<path d="M11.75 31H6.75L29.875 4.125H0.5V1H34.25V4.75L11.75 31ZM73.0195 10.375C73.0195 8.8125 72.8503 7.57552 72.5117 6.66406C72.1732 5.7526 71.6133 5.0625 70.832 4.59375C70.0508 4.125 69.0221 3.82552 67.7461 3.69531C66.4701 3.5651 64.8945 3.5 63.0195 3.5H52.9805C51.3138 3.5 49.9076 3.55208 48.7617 3.65625C47.6289 3.7474 46.6914 3.94271 45.9492 4.24219C45.207 4.54167 44.6341 4.97135 44.2305 5.53125C43.8268 6.09115 43.5339 6.83333 43.3516 7.75781C43.1693 8.68229 43.0651 9.82161 43.0391 11.1758C43.013 12.5169 43 14.125 43 16C43 17.875 43.013 19.4896 43.0391 20.8438C43.0781 22.1849 43.1888 23.3177 43.3711 24.2422C43.5534 25.1667 43.8398 25.9089 44.2305 26.4688C44.6341 27.0286 45.207 27.4583 45.9492 27.7578C46.6914 28.0573 47.6289 28.2591 48.7617 28.3633C49.9076 28.4544 51.3138 28.5 52.9805 28.5H63.0391C64.4974 28.5 65.7539 28.4609 66.8086 28.3828C67.8633 28.3047 68.7617 28.1615 69.5039 27.9531C70.2461 27.7448 70.8451 27.4583 71.3008 27.0938C71.7565 26.7292 72.1081 26.2734 72.3555 25.7266C72.6159 25.1667 72.7917 24.5026 72.8828 23.7344C72.974 22.9531 73.0195 22.0417 73.0195 21V19.125H57.9805V16H76.7695V21C76.7695 22.25 76.6914 23.3828 76.5352 24.3984C76.3789 25.401 76.099 26.2995 75.6953 27.0938C75.3047 27.875 74.7773 28.5521 74.1133 29.125C73.4492 29.6979 72.6094 30.1732 71.5938 30.5508C70.5781 30.9154 69.3672 31.1823 67.9609 31.3516C66.5547 31.5339 64.9141 31.625 63.0391 31.625H52.9805C50.6888 31.625 48.7552 31.4818 47.1797 31.1953C45.6172 30.9219 44.3281 30.5052 43.3125 29.9453C42.2969 29.3724 41.5091 28.6562 40.9492 27.7969C40.4023 26.9375 39.9987 25.9284 39.7383 24.7695C39.4909 23.6107 39.3477 22.3021 39.3086 20.8438C39.2695 19.3854 39.25 17.7708 39.25 16C39.25 14.2292 39.2695 12.6146 39.3086 11.1562C39.3477 9.69792 39.4909 8.38932 39.7383 7.23047C39.9987 6.07161 40.4023 5.0625 40.9492 4.20312C41.5091 3.34375 42.2969 2.63411 43.3125 2.07422C44.3281 1.5013 45.6172 1.07812 47.1797 0.804688C48.7552 0.518229 50.6888 0.375 52.9805 0.375H63.0195C64.8945 0.375 66.5352 0.466146 67.9414 0.648438C69.3477 0.817708 70.5586 1.08464 71.5742 1.44922C72.5898 1.80078 73.4297 2.25 74.0938 2.79688C74.7708 3.34375 75.3047 3.98828 75.6953 4.73047C76.099 5.47266 76.3789 6.3125 76.5352 7.25C76.6914 8.1875 76.7695 9.22917 76.7695 10.375H73.0195ZM92.4141 31H93.6641C93.4557 31.4167 93.2669 31.8138 93.0977 32.1914C92.9414 32.569 92.7461 32.9206 92.5117 33.2461C92.2773 33.5716 91.9844 33.8646 91.6328 34.125C91.2812 34.3854 90.8125 34.6068 90.2266 34.7891C89.6536 34.9844 88.9375 35.1276 88.0781 35.2188C87.2188 35.3229 86.1641 35.375 84.9141 35.375V38.5C86.3724 38.5 87.6354 38.4284 88.7031 38.2852C89.7708 38.1549 90.6888 37.9596 91.457 37.6992C92.2383 37.4518 92.8958 37.1458 93.4297 36.7812C93.9635 36.4167 94.4258 36 94.8164 35.5312C95.207 35.0755 95.5521 34.5677 95.8516 34.0078C96.1641 33.4609 96.4766 32.875 96.7891 32.25L97.4141 31L108.664 8.5H104.289L94.9141 28.5L84.9141 8.5H80.5391L92.4141 31ZM136.164 31H132.414V18.3047C132.414 16.9505 132.323 15.8112 132.141 14.8867C131.971 13.9492 131.613 13.194 131.066 12.6211C130.533 12.0482 129.771 11.638 128.781 11.3906C127.805 11.1302 126.516 11 124.914 11C123.156 11 121.711 11.1497 120.578 11.4492C119.445 11.7357 118.553 12.1458 117.902 12.6797C117.251 13.2005 116.796 13.832 116.535 14.5742C116.288 15.3164 116.164 16.1432 116.164 17.0547V31H112.414V8.5H116.164V12.0547C116.177 12.0156 116.236 11.8854 116.34 11.6641C116.444 11.4427 116.626 11.1823 116.887 10.8828C117.16 10.5703 117.525 10.2383 117.98 9.88672C118.449 9.53516 119.048 9.20964 119.777 8.91016C120.52 8.61068 121.411 8.36328 122.453 8.16797C123.495 7.97266 124.732 7.875 126.164 7.875C127.57 7.875 128.788 7.96615 129.816 8.14844C130.858 8.31771 131.743 8.57812 132.473 8.92969C133.215 9.26823 133.814 9.69792 134.27 10.2188C134.738 10.7266 135.109 11.3125 135.383 11.9766C135.604 11.625 135.949 11.2148 136.418 10.7461C136.887 10.2773 137.538 9.82812 138.371 9.39844C139.217 8.96875 140.272 8.61068 141.535 8.32422C142.798 8.02474 144.341 7.875 146.164 7.875C147.661 7.875 148.944 7.97917 150.012 8.1875C151.092 8.38281 152.004 8.68229 152.746 9.08594C153.488 9.47656 154.081 9.96484 154.523 10.5508C154.979 11.1367 155.324 11.8203 155.559 12.6016C155.806 13.3698 155.969 14.2357 156.047 15.1992C156.125 16.1497 156.164 17.1849 156.164 18.3047V31H152.414V18.3047C152.414 16.9505 152.323 15.8112 152.141 14.8867C151.971 13.9492 151.613 13.194 151.066 12.6211C150.533 12.0482 149.771 11.638 148.781 11.3906C147.805 11.1302 146.516 11 144.914 11C143.156 11 141.711 11.1497 140.578 11.4492C139.445 11.7357 138.553 12.1458 137.902 12.6797C137.251 13.2005 136.796 13.832 136.535 14.5742C136.288 15.3164 136.164 16.1432 136.164 17.0547V31Z" fill="#C57C0F"/>
</svg>
